<svg width="219" height="52" viewBox="0 0 219 52" fill="none" xmlns="http://www.w3.org/2000/svg">
<path d="M2.44609 20.9151C1.9486 19.4786 1.89746 18.1582 2.3624 16.9959C5.04974 10.2779 23.8333 11.4681 44.3231 19.6552C64.8129 27.8424 79.2493 39.9255 76.5619 46.6435C73.8746 53.3661 55.0911 52.1759 34.6012 43.9888C23.9076 39.7162 14.8646 34.3837 9.04356 29.2975" stroke="#96EBEE" stroke-width="2" stroke-miterlimit="10"/>
<path d="M42.4959 44.7792C43.1096 44.5607 43.7233 44.3329 44.3371 44.1004C46.4758 43.2868 48.5494 42.4314 50.5486 41.5388" stroke="#96EBEE" stroke-width="2" stroke-miterlimit="10"/>
<path d="M59.5591 13.3928C68.8579 12.4258 75.5576 13.8019 77.0175 17.6468C78.7378 22.1564 72.7959 28.9302 62.53 35.267" stroke="#96EBEE" stroke-width="2" stroke-miterlimit="10"/>
<path d="M36.9538 46.6388C19.3977 52.0458 4.59876 52.0039 2.33451 46.0577C-0.236601 39.2932 14.395 27.4519 35.0197 19.6041C39.4459 17.9211 43.7884 16.5589 47.9031 15.5268" stroke="#96EBEE" stroke-width="2" stroke-miterlimit="10"/>
<path d="M58.8199 43.1101C58.8199 43.1073 58.8183 43.1047 58.8157 43.1036L55.7374 41.6829C55.6397 41.641 55.5328 41.6457 55.4398 41.6968L52.52 43.4309C52.2922 43.5658 52.0085 43.3798 52.0411 43.1194L52.4409 39.7442C52.4549 39.6419 52.413 39.535 52.334 39.4652L49.7815 37.2243C49.5816 37.0477 49.6699 36.7222 49.9303 36.6711L53.2639 36.0109C53.3662 35.9923 53.4545 35.9226 53.4964 35.825L54.84 32.7054C54.947 32.4636 55.2817 32.445 55.4119 32.6775L57.0717 35.6436C57.1229 35.7366 57.2159 35.7971 57.3228 35.8064L60.7029 36.1225C60.9679 36.1457 61.0888 36.4619 60.9075 36.6572L58.6014 39.1491C58.5316 39.2281 58.4991 39.3351 58.5223 39.4373L59.2662 42.7522C59.3263 43.011 59.0648 43.2192 58.8242 43.1167C58.8216 43.1156 58.8199 43.113 58.8199 43.1101V43.1101Z" fill="#96EBEE"/>
<path d="M7.82077 28.9675L5.18457 27.7494C5.10088 27.7122 5.0079 27.7169 4.92886 27.7634L2.43214 29.2464C2.23686 29.3627 1.9951 29.2046 2.02299 28.9814L2.36705 26.099C2.37634 26.0106 2.3438 25.9223 2.27406 25.8619L0.0934974 23.9464C-0.0785298 23.7976 0.00050973 23.5187 0.219031 23.4722L3.06445 22.9097C3.15279 22.8911 3.22718 22.8306 3.25973 22.7516L4.40813 20.0876C4.49646 19.8784 4.78473 19.8645 4.89631 20.0644L6.31437 22.5982C6.35622 22.6772 6.43991 22.7283 6.52824 22.7376L9.41551 23.0073C9.63868 23.0305 9.74562 23.3002 9.59219 23.4629L7.62085 25.5922C7.56041 25.6573 7.53716 25.7503 7.55576 25.8386L8.19272 28.6699C8.24387 28.8884 8.01605 29.0744 7.81147 28.9768L7.82077 28.9675Z" fill="#96EBEE"/>
<path d="M55.4304 18.3628L53.2871 17.3725C53.222 17.34 53.1429 17.3446 53.0825 17.3818L51.0554 18.5859C50.8973 18.6789 50.702 18.5534 50.7206 18.3674L50.9996 16.0243C51.0089 15.9499 50.981 15.8801 50.9252 15.8337L49.1538 14.2762C49.0143 14.1553 49.0747 13.9275 49.2561 13.8903L51.5715 13.4301C51.6412 13.4161 51.7016 13.3696 51.7342 13.2999L52.6687 11.1334C52.7431 10.966 52.9756 10.9521 53.0639 11.1148L54.2169 13.1744C54.2541 13.2394 54.3192 13.2813 54.389 13.2859L56.7369 13.5044C56.9182 13.523 57.0019 13.7415 56.881 13.8764L55.2817 15.6058C55.2305 15.6616 55.2119 15.736 55.2259 15.8058L55.7419 18.1071C55.7838 18.2884 55.5978 18.4325 55.4304 18.3581V18.3628Z" fill="#96EBEE"/>
<path d="M114.86 46C114.153 46 113.8 45.6467 113.8 44.94V38H105.42C102.927 38 101.1 37.42 99.94 36.26C98.78 35.1 98.2 33.2733 98.2 30.78V26.3C98.2 23.8067 98.78 21.9867 99.94 20.84C101.1 19.68 102.927 19.1 105.42 19.1H106.94C108.713 19.1 110.153 19.34 111.26 19.82C112.38 20.3 113.227 21.0067 113.8 21.94V20.14C113.8 19.4467 114.153 19.1 114.86 19.1C115.553 19.1 115.9 19.4467 115.9 20.14V44.94C115.9 45.6467 115.553 46 114.86 46ZM105.42 35.9H113.8V25.16C113.8 23.8267 113.173 22.8333 111.92 22.18C110.68 21.5267 109.02 21.2 106.94 21.2H105.42C103.513 21.2 102.18 21.5733 101.42 22.32C100.673 23.0667 100.3 24.3933 100.3 26.3V30.78C100.3 32.6867 100.673 34.02 101.42 34.78C102.18 35.5267 103.513 35.9 105.42 35.9ZM138.917 19.1C139.624 19.1 139.977 19.4467 139.977 20.14V36.94C139.977 37.6467 139.624 38 138.917 38C138.224 38 137.877 37.6467 137.877 36.94V35.04C136.61 37.0133 134.317 38 130.997 38H129.877C127.384 38 125.557 37.42 124.397 36.26C123.25 35.1 122.677 33.2733 122.677 30.78V20.14C122.677 19.4467 123.024 19.1 123.717 19.1C124.424 19.1 124.777 19.4467 124.777 20.14V30.78C124.777 32.6867 125.15 34.02 125.897 34.78C126.657 35.5267 127.984 35.9 129.877 35.9H130.997C133.064 35.9 134.69 35.5667 135.877 34.9C137.064 34.2333 137.73 33.2133 137.877 31.84V20.14C137.877 19.4467 138.224 19.1 138.917 19.1ZM148.051 15.46C147.131 15.46 146.671 14.9867 146.671 14.04V13.14C146.671 12.22 147.131 11.76 148.051 11.76H148.951C149.844 11.76 150.291 12.22 150.291 13.14V14.04C150.291 14.9867 149.844 15.46 148.951 15.46H148.051ZM148.511 38C147.804 38 147.451 37.6467 147.451 36.94V20.14C147.451 19.4467 147.804 19.1 148.511 19.1C149.204 19.1 149.551 19.4467 149.551 20.14V36.94C149.551 37.6467 149.204 38 148.511 38ZM156.781 38C156.075 38 155.721 37.6467 155.721 36.94C155.721 36.5933 155.875 36.2267 156.181 35.84L168.421 20.72L169.221 21.2H160.161C159.188 21.2 158.481 21.34 158.041 21.62C157.601 21.9 157.321 22.4267 157.201 23.2C157.148 23.5333 157.035 23.7867 156.861 23.96C156.701 24.1333 156.461 24.22 156.141 24.22C155.781 24.22 155.508 24.1267 155.321 23.94C155.135 23.7533 155.061 23.48 155.101 23.12C155.248 21.7333 155.735 20.72 156.561 20.08C157.401 19.4267 158.601 19.1 160.161 19.1H169.961C170.655 19.1 171.001 19.4467 171.001 20.14C171.001 20.5267 170.855 20.9067 170.561 21.28L158.521 36.2L157.781 35.88L167.441 35.9C168.361 35.9 169.055 35.7467 169.521 35.44C169.988 35.12 170.275 34.6 170.381 33.88C170.461 33.5467 170.581 33.2933 170.741 33.12C170.901 32.9467 171.148 32.86 171.481 32.86C171.841 32.86 172.115 32.96 172.301 33.16C172.488 33.3467 172.555 33.6133 172.501 33.96C172.141 36.6533 170.455 38 167.441 38H156.781ZM177.406 38C176.7 38 176.346 37.6467 176.346 36.94C176.346 36.5933 176.5 36.2267 176.806 35.84L189.046 20.72L189.846 21.2H180.786C179.813 21.2 179.106 21.34 178.666 21.62C178.226 21.9 177.946 22.4267 177.826 23.2C177.773 23.5333 177.66 23.7867 177.486 23.96C177.326 24.1333 177.086 24.22 176.766 24.22C176.406 24.22 176.133 24.1267 175.946 23.94C175.76 23.7533 175.686 23.48 175.726 23.12C175.873 21.7333 176.36 20.72 177.186 20.08C178.026 19.4267 179.226 19.1 180.786 19.1H190.586C191.28 19.1 191.626 19.4467 191.626 20.14C191.626 20.5267 191.48 20.9067 191.186 21.28L179.146 36.2L178.406 35.88L188.066 35.9C188.986 35.9 189.68 35.7467 190.146 35.44C190.613 35.12 190.9 34.6 191.006 33.88C191.086 33.5467 191.206 33.2933 191.366 33.12C191.526 32.9467 191.773 32.86 192.106 32.86C192.466 32.86 192.74 32.96 192.926 33.16C193.113 33.3467 193.18 33.6133 193.126 33.96C192.766 36.6533 191.08 38 188.066 38H177.406ZM203.031 46C201.285 46 199.991 45.58 199.151 44.74C198.325 43.9 197.911 42.5933 197.911 40.82C197.911 40.1267 198.258 39.78 198.951 39.78C199.658 39.78 200.011 40.1267 200.011 40.82C200.011 42.02 200.225 42.8333 200.651 43.26C201.078 43.6867 201.871 43.9 203.031 43.9H209.951C211.125 43.9 211.925 43.6867 212.351 43.26C212.778 42.8333 212.991 42.02 212.991 40.82V35.32C212.231 36.32 211.278 37.02 210.131 37.42C208.985 37.82 207.645 38.02 206.111 38.02H204.991C202.538 38.02 200.745 37.4533 199.611 36.32C198.478 35.1867 197.911 33.4067 197.911 30.98V20.12C197.911 19.4133 198.258 19.06 198.951 19.06C199.658 19.06 200.011 19.4133 200.011 20.12V30.98C200.011 32.8333 200.371 34.12 201.091 34.84C201.825 35.56 203.125 35.92 204.991 35.92H206.111C208.445 35.92 210.171 35.5133 211.291 34.7C212.425 33.8733 212.991 32.6333 212.991 30.98V20.12C212.991 19.4133 213.338 19.06 214.031 19.06C214.738 19.06 215.091 19.4133 215.091 20.12V40.82C215.091 42.5933 214.671 43.9 213.831 44.74C213.005 45.58 211.711 46 209.951 46H203.031Z" fill="#D5D8F0"/>
</svg>
